REM DIRINDEX 1\2,1\3
REM DIRNAME folder01,folder02,folder03
TITLE ""
FILE "1141-1160.mp3" MP3
  TRACK 01 AUDIO
    TITLE "0:"
    INDEX 01 00:00:00
  TRACK 02 AUDIO
    TITLE "2:cjc039_1281"
    INDEX 01 00:00:27
  TRACK 03 AUDIO
    TITLE "0:"
    INDEX 01 00:01:34
  TRACK 04 AUDIO
    TITLE "3:cjc039_1282"
    INDEX 01 00:02:14
  TRACK 05 AUDIO
    TITLE "0:"
    INDEX 01 00:06:08
  TRACK 06 AUDIO
    TITLE "2:cjc039_1283"
    INDEX 01 00:07:58
  TRACK 07 AUDIO
    TITLE "0:"
    INDEX 01 00:09:10
  TRACK 08 AUDIO
    TITLE "3:cjc039_1284"
    INDEX 01 00:09:59
  TRACK 09 AUDIO
    TITLE "0:"
    INDEX 01 00:14:64
  TRACK 10 AUDIO
    TITLE "2:cjc039_1285"
    INDEX 01 00:16:42
  TRACK 11 AUDIO
    TITLE "0:"
    INDEX 01 00:19:58
  TRACK 12 AUDIO
    TITLE "3:cjc039_1286"
    INDEX 01 00:20:36
  TRACK 13 AUDIO
    TITLE "0:"
    INDEX 01 00:24:37
  TRACK 14 AUDIO
    TITLE "2:cjc039_1287"
    INDEX 01 00:26:13
  TRACK 15 AUDIO
    TITLE "0:"
    INDEX 01 00:27:49
  TRACK 16 AUDIO
    TITLE "3:cjc039_1288"
    INDEX 01 00:28:21
  TRACK 17 AUDIO
    TITLE "0:"
    INDEX 01 00:32:25
  TRACK 18 AUDIO
    TITLE "2:cjc039_1289"
    INDEX 01 00:34:04
  TRACK 19 AUDIO
    TITLE "0:"
    INDEX 01 00:35:17
  TRACK 20 AUDIO
    TITLE "3:cjc039_1290"
    INDEX 01 00:35:68
  TRACK 21 AUDIO
    TITLE "0:"
    INDEX 01 00:39:19
  TRACK 22 AUDIO
    TITLE "2:cjc039_1291"
    INDEX 01 00:40:72
  TRACK 23 AUDIO
    TITLE "0:"
    INDEX 01 00:41:71
  TRACK 24 AUDIO
    TITLE "3:cjc039_1292"
    INDEX 01 00:42:47
  TRACK 25 AUDIO
    TITLE "0:"
    INDEX 01 00:46:49
  TRACK 26 AUDIO
    TITLE "2:cjc039_1293"
    INDEX 01 00:48:26
  TRACK 27 AUDIO
    TITLE "0:"
    INDEX 01 00:49:25
  TRACK 28 AUDIO
    TITLE "3:cjc039_1294"
    INDEX 01 00:50:05
  TRACK 29 AUDIO
    TITLE "0:"
    INDEX 01 00:53:37
  TRACK 30 AUDIO
    TITLE "2:cjc039_1295"
    INDEX 01 00:55:16
  TRACK 31 AUDIO
    TITLE "0:"
    INDEX 01 00:56:55
  TRACK 32 AUDIO
    TITLE "3:cjc039_1296"
    INDEX 01 00:57:37
  TRACK 33 AUDIO
    TITLE "0:"
    INDEX 01 01:02:16
  TRACK 34 AUDIO
    TITLE "2:cjc039_1297"
    INDEX 01 01:03:69
  TRACK 35 AUDIO
    TITLE "0:"
    INDEX 01 01:06:55
  TRACK 36 AUDIO
    TITLE "3:cjc039_1298"
    INDEX 01 01:07:37
  TRACK 37 AUDIO
    TITLE "0:"
    INDEX 01 01:10:28
  TRACK 38 AUDIO
    TITLE "2:cjc039_1299"
    INDEX 01 01:12:07
  TRACK 39 AUDIO
    TITLE "0:"
    INDEX 01 01:13:14
  TRACK 40 AUDIO
    TITLE "3:cjc039_1300"
    INDEX 01 01:14:00
  TRACK 41 AUDIO
    TITLE "0:"
    INDEX 01 01:17:22
  TRACK 42 AUDIO
    TITLE "2:cjc039_1301"
    INDEX 01 01:19:01
  TRACK 43 AUDIO
    TITLE "0:"
    INDEX 01 01:20:22
  TRACK 44 AUDIO
    TITLE "3:cjc039_1302"
    INDEX 01 01:21:02
  TRACK 45 AUDIO
    TITLE "0:"
    INDEX 01 01:25:25
  TRACK 46 AUDIO
    TITLE "2:cjc039_1303"
    INDEX 01 01:27:06
  TRACK 47 AUDIO
    TITLE "0:"
    INDEX 01 01:28:14
  TRACK 48 AUDIO
    TITLE "3:cjc039_1304"
    INDEX 01 01:28:72
  TRACK 49 AUDIO
    TITLE "0:"
    INDEX 01 01:33:31
  TRACK 50 AUDIO
    TITLE "2:cjc039_1305"
    INDEX 01 01:35:04
  TRACK 51 AUDIO
    TITLE "0:"
    INDEX 01 01:36:17
  TRACK 52 AUDIO
    TITLE "3:cjc039_1306"
    INDEX 01 01:36:70
  TRACK 53 AUDIO
    TITLE "0:"
    INDEX 01 01:40:64
  TRACK 54 AUDIO
    TITLE "2:cjc039_1307"
    INDEX 01 01:42:43
  TRACK 55 AUDIO
    TITLE "0:"
    INDEX 01 01:43:68
  TRACK 56 AUDIO
    TITLE "3:cjc039_1308"
    INDEX 01 01:44:44
  TRACK 57 AUDIO
    TITLE "0:"
    INDEX 01 01:48:56
  TRACK 58 AUDIO
    TITLE "2:cjc039_1309"
    INDEX 01 01:50:37
  TRACK 59 AUDIO
    TITLE "0:"
    INDEX 01 01:51:50
  TRACK 60 AUDIO
    TITLE "3:cjc039_1310"
    INDEX 01 01:52:40
  TRACK 61 AUDIO
    TITLE "0:"
    INDEX 01 01:56:26
  TRACK 62 AUDIO
    TITLE "2:cjc039_1311"
    INDEX 01 01:58:01
  TRACK 63 AUDIO
    TITLE "0:"
    INDEX 01 01:59:28
  TRACK 64 AUDIO
    TITLE "3:cjc039_1312"
    INDEX 01 02:00:02
  TRACK 65 AUDIO
    TITLE "0:"
    INDEX 01 02:04:23
  TRACK 66 AUDIO
    TITLE "2:cjc039_1313"
    INDEX 01 02:06:01
  TRACK 67 AUDIO
    TITLE "0:"
    INDEX 01 02:07:02
  TRACK 68 AUDIO
    TITLE "3:cjc039_1314"
    INDEX 01 02:07:61
  TRACK 69 AUDIO
    TITLE "0:"
    INDEX 01 02:11:47
  TRACK 70 AUDIO
    TITLE "2:cjc039_1315"
    INDEX 01 02:13:24
  TRACK 71 AUDIO
    TITLE "0:"
    INDEX 01 02:15:13
  TRACK 72 AUDIO
    TITLE "3:cjc039_1316"
    INDEX 01 02:15:62
  TRACK 73 AUDIO
    TITLE "0:"
    INDEX 01 02:19:44
  TRACK 74 AUDIO
    TITLE "2:cjc039_1317"
    INDEX 01 02:21:22
  TRACK 75 AUDIO
    TITLE "0:"
    INDEX 01 02:22:25
  TRACK 76 AUDIO
    TITLE "3:cjc039_1318"
    INDEX 01 02:23:03
  TRACK 77 AUDIO
    TITLE "0:"
    INDEX 01 02:26:46
  TRACK 78 AUDIO
    TITLE "2:cjc039_1319"
    INDEX 01 02:28:24
  TRACK 79 AUDIO
    TITLE "0:"
    INDEX 01 02:29:37
  TRACK 80 AUDIO
    TITLE "3:cjc039_1320"
    INDEX 01 02:30:13
  TRACK 81 AUDIO
    TITLE "0:"
    INDEX 01 02:33:48
